<svg width="20" height="20" viewBox="0 0 20 20" fill="none" xmlns="http://www.w3.org/2000/svg">
<g clip-path="url(#clip0_570_111)">
<path d="M12.5 9.16699V4.16699L10 1.66699L7.5 4.16699V5.83366H2.5V17.5003H17.5V9.16699H12.5ZM5.83333 15.8337H4.16667V14.167H5.83333V15.8337ZM5.83333 12.5003H4.16667V10.8337H5.83333V12.5003ZM5.83333 9.16699H4.16667V7.50033H5.83333V9.16699ZM10.8333 15.8337H9.16667V14.167H10.8333V15.8337ZM10.8333 12.5003H9.16667V10.8337H10.8333V12.5003ZM10.8333 9.16699H9.16667V7.50033H10.8333V9.16699ZM10.8333 5.83366H9.16667V4.16699H10.8333V5.83366ZM15.8333 15.8337H14.1667V14.167H15.8333V15.8337ZM15.8333 12.5003H14.1667V10.8337H15.8333V12.5003Z" fill="#323232"/>
</g>
<defs>
<clipPath id="clip0_570_111">
<rect width="20" height="20" fill="white"/>
</clipPath>
</defs>
</svg>
