<svg width="36" height="36" viewBox="0 0 36 36" fill="none" xmlns="http://www.w3.org/2000/svg">
<path d="M27 15.75V9L23.835 10.59C24.0484 11.4727 24.0587 12.3923 23.865 13.2796C23.6713 14.1668 23.2788 14.9985 22.717 15.712C22.1551 16.4255 21.4387 17.0021 20.6216 17.3984C19.8045 17.7948 18.9081 18.0005 18 18C17.0919 18.0005 16.1955 17.7948 15.3784 17.3984C14.5613 17.0021 13.8449 16.4255 13.283 15.712C12.7212 14.9985 12.3287 14.1668 12.135 13.2796C11.9413 12.3923 11.9516 11.4727 12.165 10.59L7.5 8.25L18 3L28.5 8.25V15.75H27ZM18 13.5L15 12C15 13.65 16.35 15 18 15C19.65 15 21 13.65 21 12L18 13.5ZM22.125 8.13L18.24 6.15L14.205 8.205L18.105 10.185L22.125 8.13ZM18 19.5C22.005 19.5 30 21.495 30 25.5V30H6V25.5C6 21.495 13.995 19.5 18 19.5ZM18 22.35C13.5 22.35 8.85 24.54 8.85 25.5V27.15H27.15V25.5C27.15 24.54 22.455 22.35 18 22.35Z" fill="black"/>
</svg>
